PathFileType	4	(X/Y/Z)	./resultDataOpenSim/trcMotMarkerGrf/sub06/qtm-05-08.trc
DataRate	CameraRate	NumFrames	NumMarkers	Units	OrigDataRate	OrigDataStartFrame	OrigNumFrames
250.000000	250.000000	11	24	m	250.000000	127	507
Frame#	Time	L.Toe.Tip			R.Toe.Tip			L.Ankle.Lat			R.Ankle.Lat			L.Ankle.Med			R.Ankle.Med			L.Heel			R.Heel			L.Knee.Lat			R.Knee.Lat			L.Knee.Med			R.Knee.Med			L.Thigh.Upper			R.Thigh.Upper			L.ASIS			R.ASIS			V.Sacral			L.Acromium			R.Acromium			C7			L.Elbow			R.Elbow			L.Wrist.Lat			R.Wrist.Lat
		X1	Y1	Z1	X2	Y2	Z2	X3	Y3	Z3	X4	Y4	Z4	X5	Y5	Z5	X6	Y6	Z6	X7	Y7	Z7	X8	Y8	Z8	X9	Y9	Z9	X10	Y10	Z10	X11	Y11	Z11	X12	Y12	Z12	X13	Y13	Z13	X14	Y14	Z14	X15	Y15	Z15	X16	Y16	Z16	X17	Y17	Z17	X18	Y18	Z18	X19	Y19	Z19	X20	Y20	Z20	X21	Y21	Z21	X22	Y22	Z22	X23	Y23	Z23	X24	Y24	Z24

127	0.504	-0.25760132	0.061876904	-0.043180145	-0.82768637	0.034992012	0.11151724	-0.3861625	0.099337774	-0.057381766	-0.95864374	0.07211194	0.12288436	-0.37571176	0.12060788	0.025651529	-0.92986513	0.090563592	0.039376825	-0.44554477	0.071035117	0.0020969371	-1.0114488	0.054743103	0.055332702	-0.45034392	0.47231941	-0.070824587	-0.79748397	0.42975553	0.16336072	-0.46005565	0.46592416	0.050699324	-0.81573084	0.42864804	0.030853518	-0.64637052	0.81591337	-0.11568033	-0.71365327	0.78506775	0.22607067	-0.58763961	0.85331623	-0.059833022	-0.60271133	0.83788848	0.18681956	-0.78461686	0.91882522	0.05839702	-0.65945576	1.3260568	-0.13173589	-0.63408081	1.3223636	0.2273157	-0.72632285	1.3582452	0.052034232	-0.76742592	1.0318522	-0.16960531	-0.67509275	1.0150036	0.33355757	-0.68607455	0.80710633	-0.22944108	-0.45638509	0.89056586	0.31475002
128	0.508	-0.24056715	0.062807861	-0.041455947	-0.8276641	0.034931228	0.11152386	-0.36986706	0.098902728	-0.057028163	-0.95847994	0.07225728	0.1227495	-0.36015046	0.12067056	0.026096699	-0.92940799	0.090526921	0.039150678	-0.42900545	0.070176532	0.0020540879	-1.0113137	0.055078615	0.055181307	-0.44380373	0.46962272	-0.069966464	-0.79434233	0.4283225	0.16311704	-0.45306252	0.46326105	0.051739809	-0.81180351	0.42736571	0.030756276	-0.63910455	0.81315927	-0.11558248	-0.7082622	0.78310802	0.22600399	-0.5803507	0.85064587	-0.059704951	-0.59682012	0.83565298	0.18726189	-0.77749206	0.91673266	0.05855193	-0.65351712	1.3237255	-0.13178168	-0.62796416	1.3201372	0.22732334	-0.72049744	1.3560206	0.052041295	-0.76189616	1.0299205	-0.16941241	-0.66788127	1.0126834	0.3340058	-0.68227224	0.80478693	-0.2299313	-0.44819342	0.88995818	0.31391654
129	0.512	-0.22389379	0.063964081	-0.039709256	-0.82762295	0.034885558	0.11152221	-0.35377258	0.09865831	-0.056647086	-0.95820991	0.072445568	0.12261108	-0.34499853	0.12079556	0.026573487	-0.9289681	0.090487585	0.038936586	-0.41279528	0.069408933	0.0019718558	-1.0111686	0.055455183	0.055001581	-0.4372441	0.46679044	-0.069115001	-0.79077331	0.42690667	0.16299149	-0.44615339	0.46044419	0.052812854	-0.80779214	0.42602322	0.030676328	-0.63183651	0.81022437	-0.11549482	-0.70279292	0.78110873	0.22589682	-0.57301093	0.84788129	-0.059545929	-0.59089732	0.83333704	0.18771238	-0.76998728	0.91474818	0.058775458	-0.64743798	1.3213002	-0.13183377	-0.62183617	1.3178379	0.22731463	-0.71464532	1.3536959	0.052042288	-0.75631071	1.0278893	-0.16922883	-0.66060329	1.0102813	0.33436973	-0.67852182	0.80235586	-0.23046899	-0.4400298	0.88925713	0.31308873
130	0.516	-0.20760747	0.065300727	-0.037952803	-0.82757844	0.034847213	0.11151695	-0.3378558	0.098619776	-0.056219468	-0.95789775	0.072672742	0.12246348	-0.33027741	0.12096334	0.027094447	-0.92854262	0.090446654	0.038726178	-0.39695545	0.068741828	0.0018281217	-1.0110101	0.055877962	0.054801184	-0.43063676	0.46384049	-0.068277615	-0.78689658	0.42549143	0.16295105	-0.43931102	0.45749122	0.053911105	-0.80370651	0.42463267	0.030605086	-0.62446755	0.80714149	-0.11538924	-0.69727533	0.7790451	0.22578471	-0.56561972	0.84502677	-0.059344871	-0.58495735	0.83094409	0.18813677	-0.76225023	0.91279309	0.059020365	-0.64126464	1.3187862	-0.13189291	-0.61571233	1.3154631	0.22730194	-0.70875366	1.3512747	0.052025113	-0.7506802	1.0257525	-0.16905178	-0.65329443	1.0078173	0.33469983	-0.67470992	0.79985018	-0.23100835	-0.43189453	0.88846171	0.31226995
131	0.52	-0.19172297	0.066757116	-0.0362151	-0.82754094	0.034812864	0.11151259	-0.32223067	0.098745112	-0.055780118	-0.95757809	0.072938138	0.12231634	-0.31596376	0.12115345	0.02765061	-0.92811534	0.090412626	0.038519122	-0.38152968	0.06818664	0.0016062834	-1.0108393	0.056347057	0.054605251	-0.42397278	0.46077952	-0.067443562	-0.78289289	0.42404591	0.16294144	-0.43250469	0.45442492	0.055042173	-0.79955951	0.42320802	0.03053269	-0.61692706	0.80393096	-0.11524269	-0.69172863	0.77691068	0.22570732	-0.55818143	0.84209438	-0.059095659	-0.57899246	0.82848079	0.1885385	-0.75441515	0.91079455	0.059242168	-0.63513171	1.3161917	-0.13197954	-0.60960773	1.3130191	0.22729673	-0.70280623	1.3487475	0.051986584	-0.74501336	1.023517	-0.16888989	-0.64596982	1.0052962	0.33502172	-0.67073328	0.79729817	-0.23150333	-0.42378766	0.88757239	0.31146367
132	0.524	-0.17623648	0.068267158	-0.034528636	-0.82751556	0.034780673	0.11151323	-0.30701607	0.098966587	-0.055366215	-0.95725845	0.073236136	0.12218232	-0.30200117	0.1213382	0.028203968	-0.92767298	0.090391623	0.038326374	-0.36650208	0.06774357	0.0013230234	-1.0106576	0.056855728	0.054434532	-0.4172574	0.45761663	-0.066595433	-0.77888423	0.42254983	0.16292799	-0.42571512	0.4512651	0.05620758	-0.79535199	0.421751	0.0304601	-0.60925014	0.8005859	-0.1150656	-0.68616659	0.7747198	0.22568212	-0.5506986	0.83909444	-0.058794779	-0.57297795	0.82596029	0.18896083	-0.74661657	0.90867726	0.059395905	-0.6290374	1.3135276	-0.13209152	-0.60352908	1.310513	0.22729994	-0.69679882	1.3461118	0.051926777	-0.73931042	1.021194	-0.16875319	-0.63862958	1.00271	0.33534265	-0.66660566	0.79470072	-0.2319561	-0.41570957	0.88659201	0.31067373
133	0.528	-0.16114688	0.069763108	-0.032924163	-0.82750193	0.034749989	0.1115233	-0.29223961	0.099235389	-0.05497312	-0.95694797	0.073552364	0.12206785	-0.28834618	0.12149583	0.02872352	-0.92719667	0.090390447	0.038160252	-0.3517839	0.067391848	0.0010219314	-1.0104623	0.05740129	0.054282828	-0.41049208	0.45437032	-0.065729748	-0.7749124	0.42100246	0.16290466	-0.41894077	0.44802345	0.057396191	-0.79108515	0.42025625	0.030400844	-0.60152295	0.79710225	-0.11488241	-0.68059101	0.77249162	0.22570189	-0.54315634	0.83603588	-0.058444806	-0.56690023	0.82338865	0.18943332	-0.73899389	0.90636229	0.05943452	-0.62287289	1.3108083	-0.13221315	-0.59747195	1.3079469	0.22730103	-0.69074197	1.3433984	0.051838471	-0.73356605	1.0187925	-0.168648	-0.63127488	1.0000543	0.33566338	-0.66238486	0.79205281	-0.2323882	-0.40766177	0.88552138	0.30990245
134	0.532	-0.14647392	0.071171571	-0.031438998	-0.82749612	0.034722804	0.11154737	-0.2778892	0.099517606	-0.054575926	-0.95665815	0.073877582	0.12197379	-0.27497581	0.12162417	0.029223238	-0.92667336	0.090421344	0.038025596	-0.33733353	0.067107862	0.00075035715	-1.010252	0.05799236	0.054128674	-0.40365392	0.45107168	-0.064858803	-0.77096955	0.41941517	0.16288637	-0.41218973	0.44470936	0.058594091	-0.78676725	0.41872652	0.030357217	-0.59378847	0.79350063	-0.11469959	-0.67496365	0.77021439	0.22572227	-0.53552708	0.83293151	-0.058052502	-0.5607656	0.82076278	0.18994829	-0.73166726	0.90378784	0.059313159	-0.61662851	1.3080441	-0.1323562	-0.59142909	1.3053193	0.22728994	-0.68463319	1.3406481	0.051712235	-0.72777374	1.0163214	-0.16857778	-0.62391322	0.99733918	0.33598222	-0.6580872	0.78936011	-0.23280471	-0.39965182	0.88435622	0.30915137
135	0.536	-0.13226109	0.072413399	-0.030123457	-0.82749403	0.034704501	0.11159126	-0.26396531	0.099774337	-0.054158208	-0.95638055	0.074220487	0.12190392	-0.26185066	0.12174163	0.029770415	-0.92613309	0.09049846	0.037924556	-0.32324545	0.066884754	0.00055122311	-1.0100481	0.05864519	0.053987507	-0.39670702	0.44776465	-0.064000268	-0.76704845	0.41779775	0.16288784	-0.40546537	0.4413394	0.059784651	-0.78241031	0.41716643	0.030321663	-0.58603954	0.78981168	-0.11451076	-0.66918386	0.76781577	0.22565936	-0.52780669	0.82979342	-0.057620583	-0.55460082	0.81808697	0.19047937	-0.72467761	0.90095668	0.059002507	-0.61037586	1.3052357	-0.13254647	-0.58540057	1.3026334	0.22726732	-0.67846374	1.3378847	0.051544342	-0.72192867	1.0137853	-0.16854474	-0.61654972	0.99457835	0.33629753	-0.65365619	0.78664394	-0.23318665	-0.39169467	0.88309272	0.30842375
136	0.54	-0.11855833	0.073419005	-0.029031833	-0.82749399	0.034700518	0.11165965	-0.25048807	0.099957126	-0.053709602	-0.95609186	0.074597535	0.12186596	-0.24892252	0.12186546	0.030434575	-0.92564464	0.090626877	0.037863884	-0.30963328	0.066711172	0.00048224708	-1.009897	0.059375962	0.053925256	-0.38963251	0.44449139	-0.063174003	-0.76315067	0.41615938	0.16291068	-0.39876321	0.43793356	0.060944913	-0.77803282	0.4155733	0.030300835	-0.5782582	0.78606203	-0.11431209	-0.66309527	0.76517284	0.2254173	-0.52003483	0.82662464	-0.057149224	-0.54843655	0.81537468	0.19100336	-0.71793359	0.89797415	0.058505285	-0.60412029	1.30238	-0.13278384	-0.57939416	1.2998991	0.22723989	-0.67227818	1.3351483	0.051328709	-0.71603008	1.0111791	-0.16854683	-0.60918047	0.99177595	0.33661257	-0.64900638	0.78393005	-0.2335101	-0.38380324	0.88173976	0.30772518
137	0.544	-0.10540035	0.074145213	-0.028201717	-0.82749752	0.034708846	0.11174656	-0.23749948	0.10000959	-0.053213221	-0.95578191	0.075017006	0.12186106	-0.23621573	0.12197638	0.031180146	-0.92522685	0.090800515	0.037844106	-0.29650982	0.06653914	0.00062748295	-1.0097994	0.060187207	0.053959102	-0.38243828	0.44127645	-0.062399267	-0.75925464	0.41451046	0.16295216	-0.39208106	0.43450555	0.062053374	-0.77363949	0.41394852	0.03030462	-0.57043604	0.78227595	-0.11410503	-0.65658912	0.76220339	0.22495889	-0.51226056	0.82341715	-0.056643195	-0.54227882	0.81263344	0.19151236	-0.71125238	0.89500357	0.05786001	-0.59780453	1.2994799	-0.13304587	-0.5734146	1.2971278	0.22720955	-0.6661719	1.3325011	0.051058795	-0.7100838	1.0084954	-0.16856556	-0.6017938	0.98893034	0.33693387	-0.64413854	0.78121766	-0.23378283	-0.37597704	0.88032006	0.30705886
